<svg xmlns="http://www.w3.org/2000/svg" viewBox="0 0 400 300" width="400" height="300">
  <!-- Left Heart Eye -->
  <g transform="translate(0, 60) scale(8)">
    <path fill="#FF0000" d="M12 20a1 1 0 0 1-.437-.1C11.214 19.73 3 15.671 3 9a5 5 0 0 1 8.535-3.536l.465.465.465-.465A5 5 0 0 1 21 9c0 6.646-8.212 10.728-8.562 10.9A1 1 0 0 1 12 20z"/>
  </g>

  <!-- Right Heart Eye -->
  <g transform="translate(210, 60) scale(8)">
    <path fill="#FF0000" d="M12 20a1 1 0 0 1-.437-.1C11.214 19.73 3 15.671 3 9a5 5 0 0 1 8.535-3.536l.465.465.465-.465A5 5 0 0 1 21 9c0 6.646-8.212 10.728-8.562 10.9A1 1 0 0 1 12 20z"/>
  </g>
</svg>